# xmcd
#
# Track frame offsets:
#	150
#	18042
#	38267
#	63835
#	79875
#	99725
#	128307
#	152320
#	171682
#	189622
#
# Disc length: 2833 seconds
#
# Revision: 2
# Processed by: cddbd v1.4PL0 Copyright (c) Steve Scherf et al.
# Submitted via: EasyCDDAExtractor 5.0.7
#
DISCID=6b0b0f0a
DTITLE=Various Artist - Neu Em La Nguoi Tinh
DYEAR=1900
DGENRE=
TTITLE0=Mot Minh Trong Chieu Nang
TTITLE1=Neu Em La Nguoi Tinh
TTITLE2=Neu Vang Nang
TTITLE3=Hay Hon Em
TTITLE4=Buoc Chan Nguoi Tinh
TTITLE5=Xin Cho Toi Thien Tinh
TTITLE6=La Thu
TTITLE7=Tinh Em Trao Anh
TTITLE8=Chang Con Nhu Xua
TTITLE9=Trung Vuong Khung Cua Mua Thu
EXTD=
EXTT0=
EXTT1=
EXTT2=
EXTT3=
EXTT4=
EXTT5=
EXTT6=
EXTT7=
EXTT8=
EXTT9=
PLAYORDER=
